<?xml version="1.0" standalone="no"?>
<!DOCTYPE svg PUBLIC "-//W3C//DTD SVG 20010904//EN"
 "http://www.w3.org/TR/2001/REC-SVG-20010904/DTD/svg10.dtd">
<svg version="1.0" xmlns="http://www.w3.org/2000/svg"
 width="360.000000pt" height="360.000000pt" viewBox="0 0 360.000000 360.000000"
 preserveAspectRatio="xMidYMid meet">

<g transform="translate(0.000000,360.000000) scale(0.100000,-0.100000)"
fill="#000000" stroke="none">
<path d="M0 1800 l0 -1800 1800 0 1800 0 0 1800 0 1800 -1800 0 -1800 0 0
-1800z m1973 856 c338 -65 618 -345 683 -683 52 -274 -26 -559 -210 -759 -172
-189 -389 -284 -646 -284 -366 0 -678 212 -814 553 -75 188 -75 446 0 634 110
276 353 482 633 538 90 18 263 18 354 1z"/>
<path d="M1710 2620 c-356 -43 -640 -299 -717 -645 -20 -90 -20 -260 0 -350
56 -254 239 -477 475 -582 197 -87 467 -87 664 0 336 149 538 513 484 874 -42
282 -227 526 -484 640 -116 51 -297 78 -422 63z m68 -216 l62 -7 0 -78 c0 -46
-4 -79 -10 -79 -5 0 -10 11 -10 24 0 55 -70 106 -145 106 -119 0 -191 -98
-151 -204 13 -33 36 -58 105 -114 l89 -71 0 -56 c-1 -30 -3 -55 -5 -55 -2 0
-55 41 -118 90 -131 104 -155 140 -155 234 0 62 17 104 59 149 46 50 122 80
186 72 17 -3 58 -7 93 -11z m267 -312 c97 -44 135 -100 135 -199 0 -77 -30
-137 -87 -173 l-44 -28 45 -15 c67 -23 112 -62 143 -124 71 -147 2 -304 -155
-354 -51 -16 -452 -25 -452 -10 0 6 11 11 25 11 37 0 73 43 77 92 3 37 6 41
43 54 22 7 41 14 43 14 1 0 2 -30 2 -67 l0 -66 98 6 c111 7 145 17 186 55 40
38 56 81 56 156 0 76 -11 110 -48 149 -29 31 -92 67 -116 67 -20 0 -33 43 -15
48 29 10 88 83 95 117 10 58 -1 143 -22 172 -41 54 -70 68 -155 72 l-79 3 0
-286 0 -285 -35 -36 c-20 -19 -40 -35 -45 -35 -6 0 -10 117 -10 310 l0 311
-25 24 c-13 14 -36 25 -50 25 -14 0 -25 5 -25 11 0 8 53 10 183 7 162 -3 187
-6 232 -26z m-105 -349 c57 -152 -6 -312 -148 -375 -65 -29 -182 -35 -255 -14
-193 56 -260 265 -140 438 14 21 30 35 34 32 5 -3 1 -17 -10 -32 -51 -73 -64
-186 -30 -262 45 -99 106 -135 230 -135 78 0 90 3 135 30 91 57 134 169 100
265 -9 26 -16 77 -15 120 l0 75 39 -43 c22 -24 49 -69 60 -99z"/>
</g>
</svg>
